# xmcd CD database file
#
# Track frame offsets:
#	180
#	26700
#	58197
#	95466
#	127784
#	160473
#	195040
#	236826
#
# Disc length: 3209 seconds
#
# Revision: 0
# Processed by: cddbd v1.5.2PL0 Copyright (c) Steve Scherf et al.
# Submitted via: CDex 1.70beta2
#
DISCID=610c8708
DTITLE=Cran, Brian [CDN-Soft Jazz) Toronto - The Play Ethic
DYEAR=1900
DGENRE=Jazz
TTITLE0=Shickendance
TTITLE1=Fill Ma'nimmons
TTITLE2=In Youth
TTITLE3=Black Havard
TTITLE4=Gangrenous
TTITLE5=Bridgetown Bust
TTITLE6=Vandals'Day
TTITLE7=Post Facto
EXTD=
EXTT0=
EXTT1=
EXTT2=
EXTT3=
EXTT4=
EXTT5=
EXTT6=
EXTT7=
PLAYORDER=
